<svg width="37" height="40" viewBox="0 0 37 40" fill="none" xmlns="http://www.w3.org/2000/svg">
<rect width="37" height="40" rx="8" fill="#ACBFFF" fill-opacity="0.2"/>
<path d="M16 26C15.45 26 14.9792 25.8042 14.5875 25.4125C14.1958 25.0208 14 24.55 14 24V12C14 11.45 14.1958 10.9792 14.5875 10.5875C14.9792 10.1958 15.45 10 16 10H25C25.55 10 26.0208 10.1958 26.4125 10.5875C26.8042 10.9792 27 11.45 27 12V24C27 24.55 26.8042 25.0208 26.4125 25.4125C26.0208 25.8042 25.55 26 25 26H16ZM16 24H25V12H16V24ZM12 30C11.45 30 10.9792 29.8042 10.5875 29.4125C10.1958 29.0208 10 28.55 10 28V14H12V28H23V30H12ZM16 24V12V24Z" fill="#394C84"/>
</svg>
